<svg width="130" height="130" viewBox="0 0 130 130" fill="none" xmlns="http://www.w3.org/2000/svg">
<path d="M55.2584 14.9L52.0584 18.8L46.6584 16.3C43.6584 14.9 39.0584 13.7 36.5584 13.7L31.9584 13.5L32.1584 20.5C32.3584 28.9 31.1584 32.8 21.2584 53.9C17.2584 62.4 12.9584 72.3 11.7584 76.1C9.55845 82.6 9.45845 82.9 11.2584 85.7C13.7584 89.9 17.4584 92.5 22.8584 94C26.0584 94.9 27.9584 95 29.1584 94.3C30.3584 93.5 30.9584 93.8 31.7584 95.4C32.3584 96.6 33.7584 97.6 34.9584 97.8C36.6584 98.1 38.1584 96.6 42.1584 90.7C44.8584 86.6 48.5584 82.1 50.3584 80.6C53.9584 77.5 61.2584 73.6 61.9584 74.3C62.9584 75.3 58.1584 84.3 52.4584 92.3C49.1584 96.8 45.8584 101.8 44.9584 103.5C43.7584 105.9 41.2584 115.5 41.2584 117.5C41.2584 117.8 58.5584 118 79.6584 118H117.958L118.658 113.4C120.858 96.7 116.658 69.8 109.558 55.5C100.758 38 87.9585 26.7 74.8585 25.1C70.1585 24.5 69.8584 24.3 68.5584 20.3C67.1584 16.1 62.3584 11 59.7584 11C58.9584 11 56.9584 12.8 55.2584 14.9Z" fill="black"/>
<path d="M76.0584 34.5C86.4584 37.6 100.458 54.2 105.458 69.5C108.458 78.6 110.258 90 110.258 99.9C110.258 107.1 108.758 110.5 106.058 109.5C103.958 108.7 103.258 105.9 103.258 97.4C103.258 88 100.858 74.3 97.8584 67C92.4584 53.8 81.4584 41.9 71.2584 38.3C66.4584 36.6 64.9584 34.7 67.5584 33.7C69.5584 32.8 70.6584 32.9 76.0584 34.5ZM46.9584 42.7C47.2584 43.4 45.6584 45.8 43.5584 48C40.6584 51.2 38.9584 52.2 36.2584 52.3C31.1584 52.6 30.9584 49.1 35.6584 44.4C38.6584 41.4 39.7584 40.9 42.8584 41.2C44.9584 41.4 46.7584 42 46.9584 42.7ZM21.2584 78.8C21.2584 81.3 19.1584 83.8 16.7584 84.2C15.1584 84.4 14.8584 84 15.0584 82C15.4584 77.9 21.2584 74.9 21.2584 78.8Z" fill="#EAEAEA"/>
</svg>
