<svg width="130" height="130" viewBox="0 0 130 130" fill="none" xmlns="http://www.w3.org/2000/svg">
<path d="M58.6798 8.87251C55.1798 11.5725 54.5798 15.6725 56.6798 22.3725C58.9798 29.6725 58.8798 39.6725 56.5798 51.5725L54.8798 60.5725L52.5798 55.5725C47.7798 44.9725 45.2798 35.7725 45.4798 29.5725C45.5798 26.2725 45.6798 22.3725 45.6798 20.8725C45.8798 14.3725 38.4798 9.77251 32.0798 12.4725C27.8798 14.1725 26.3798 16.2725 25.7798 20.8725C25.3798 24.1725 25.6798 25.2725 28.3798 28.2725C32.8798 33.3725 33.4798 35.9725 33.4798 48.8725L33.3798 60.5725L29.4798 56.2725C23.2798 49.3725 21.0798 43.9725 21.8798 37.2725C22.3798 32.5725 22.1798 30.9725 20.4798 28.2725C17.0798 22.7725 11.7798 21.6725 6.47976 25.2725C0.27976 29.4725 0.579761 37.7725 6.97976 42.5725C9.77976 44.7725 10.2798 45.8725 10.8798 51.0725C11.2798 54.2725 12.8798 61.9725 14.3798 67.9725C16.8798 77.6725 17.8798 79.7725 22.2798 85.2725C24.9798 88.7725 27.9798 93.0725 28.8798 94.8725C30.4798 97.9725 30.4798 98.3725 27.9798 105.173C23.6798 117.173 24.4798 118.573 36.9798 121.773C46.5798 124.173 82.3798 124.173 93.3798 121.773C105.18 119.173 106.68 116.273 101.88 104.873C100.38 101.273 99.5798 97.8725 99.8798 96.4725C100.18 95.2725 103.28 90.7725 106.58 86.4725C112.48 79.0725 112.78 78.3725 115.58 66.8725C117.08 60.2725 118.68 52.5725 118.98 49.6725C119.58 45.3725 120.18 44.2725 122.88 42.5725C129.78 38.0725 129.38 27.8725 122.18 24.4725C117.78 22.3725 114.18 23.1725 110.28 27.1725C107.38 30.0725 107.28 30.3725 107.98 36.4725C108.58 42.0725 108.28 43.4725 106.18 47.6725C104.78 50.3725 102.08 54.3725 100.08 56.5725L96.5798 60.5725L96.2798 54.5725C95.5798 39.0725 96.8798 32.7725 101.28 28.6725C108.78 21.9725 100.58 8.87251 90.9798 12.0725C84.9798 14.0725 83.9798 16.1725 84.2798 26.1725C84.4798 33.8725 84.1798 36.2725 81.5798 44.0725C79.8798 49.0725 77.6798 54.7725 76.6798 56.7725L74.7798 60.3725L73.1798 51.3725C71.0798 40.0725 70.9798 28.6725 72.9798 23.0725C75.1798 16.8725 74.8798 12.7725 71.9798 9.67251C69.0798 6.47251 62.3798 6.07251 58.6798 8.87251Z" fill="black"/>
<path d="M68.2798 13.2723C69.9798 14.9723 69.7798 18.5723 67.9798 20.0723C64.1798 23.1723 58.3798 17.3723 61.4798 13.5723C62.9798 11.7723 66.5798 11.5723 68.2798 13.2723ZM39.6798 19.4723C41.9798 22.9723 39.6798 26.2723 35.3798 25.8723C32.4798 25.5723 31.9798 25.1723 31.6798 22.5723C31.3798 20.6723 31.8798 19.2723 33.0798 18.3723C34.9798 16.9723 38.4798 17.5723 39.6798 19.4723ZM96.8798 18.3723C98.0798 19.2723 98.5798 20.6723 98.2798 22.5723C98.0798 24.9723 97.4798 25.6723 95.1798 25.8723C89.7798 26.4723 87.4798 21.5723 91.6798 18.6723C94.3798 16.7723 94.6798 16.7723 96.8798 18.3723ZM15.2798 30.2723C16.9798 31.9723 16.7798 35.5723 14.9798 37.0723C12.9798 38.7723 8.77976 37.5723 7.97976 35.0723C6.57976 30.6723 12.0798 27.0723 15.2798 30.2723ZM120.88 30.6723C122.78 32.4723 122.88 33.4723 121.48 36.1723C119.48 39.8723 113.48 37.9723 113.48 33.5723C113.48 29.3723 117.88 27.6723 120.88 30.6723ZM92.9798 79.1723C95.7798 80.1723 97.0798 81.2723 97.2798 82.6723L97.5798 84.8723L65.0798 84.7723C34.0798 84.6723 32.4798 84.5723 32.4798 82.8723C32.4798 78.6723 43.3798 77.0723 68.9798 77.4723C82.4798 77.7723 90.2798 78.2723 92.9798 79.1723ZM88.8798 100.972C90.9798 101.472 93.4798 102.672 94.3798 103.472C95.6798 104.872 95.6798 105.272 94.4798 106.472C93.1798 107.672 90.4798 107.772 78.4798 107.172C70.4798 106.672 57.9798 106.672 50.5798 107.172C37.4798 108.072 34.4798 107.572 34.4798 104.972C34.4798 103.372 40.1798 101.172 46.5798 100.172C54.1798 98.9723 83.2798 99.5723 88.8798 100.972Z" fill="#EAEAEA"/>
</svg>
