<svg width="130" height="130" viewBox="0 0 130 130" fill="none" xmlns="http://www.w3.org/2000/svg">
<path d="M57.1 14.0174C50.3 17.5174 48 24.1174 50.7 31.8174C51.6 34.2174 52.2 36.3174 52.1 36.4174C51.9 36.5174 50.1 37.5174 48.1 38.8174C41.4 42.8174 38.4 53.4174 41.7 61.2174C42.4 63.0174 44.5 65.7174 46.3 67.3174C48.9 69.5174 49.3 70.2174 48.2 70.9174C43.2 73.7174 36 80.1174 33.4 83.9174C28.7 90.9174 27.1 96.4174 26.6 108.117L26 118.917H65.3H104.6L104 108.117C103.6 100.817 102.8 95.6174 101.3 91.7174C98.8 85.0174 92 77.0174 85.7 73.3174C83.3 71.9174 81.3 70.5174 81.3 70.2174C81.3 69.9174 82.5 68.8174 83.9 67.6174C87 65.2174 90.2 58.6174 90.3 54.5174C90.3 49.2174 88 43.9174 84.3 40.5174C82.2 38.7174 80 37.0174 79.3 36.7174C78.2 36.4174 78.2 35.6174 79.1 32.9174C79.8 31.1174 80.3 27.7174 80.3 25.3174C80.3 14.9174 67.4 8.51736 57.1 14.0174Z" fill="black"/>
</svg>
