<svg width="130" height="130" viewBox="0 0 130 130" fill="none" xmlns="http://www.w3.org/2000/svg">
<path fill-rule="evenodd" clip-rule="evenodd" d="M60.8874 8.2825C59.8874 11.4825 59.3874 11.8825 56.2874 11.8825C53.0874 11.8825 52.8874 12.0825 52.8874 15.2825C52.8874 18.2825 53.3874 19.0825 56.8874 20.9825C59.0874 22.2825 60.8874 23.9825 60.8874 24.7825C60.8874 25.5825 58.7874 28.4825 56.1874 31.0825C51.9874 35.2825 51.4874 36.3825 51.0874 41.3825C50.8874 44.3825 50.4874 46.8825 50.1874 46.8825C49.9874 46.8825 48.4874 45.9825 46.9874 44.7825C40.4874 39.9825 28.6874 39.2825 20.8874 43.3825C16.8874 45.4825 12.1874 51.2825 10.9874 55.5825C8.68736 63.7825 10.0874 68.5825 18.5874 81.5825C24.8874 91.0825 26.5874 95.6825 27.4874 106.182C28.4874 117.182 30.5874 119.682 41.2874 122.482C53.5874 125.782 82.2874 125.082 92.9874 121.382C100.187 118.782 101.587 116.782 102.387 107.982C103.487 96.7825 105.787 90.3825 112.687 79.9825C119.287 70.0825 120.387 66.5825 119.687 58.7825C118.187 43.6825 100.787 35.9825 85.8874 43.6825L80.0874 46.6825L79.3874 41.1825C78.7874 36.3825 78.1874 35.1825 74.2874 31.4825C68.8874 26.2825 68.6874 23.7825 73.3874 20.8825C76.2874 19.0825 76.8874 18.0825 76.8874 15.2825C76.8874 12.0825 76.6874 11.8825 73.4874 11.8825C70.5874 11.8825 70.0874 11.4825 69.2874 8.5825C68.4874 5.9825 67.7874 5.2825 65.1874 5.0825C62.3874 4.7825 61.9874 5.1825 60.8874 8.2825Z" fill="black"/>
<path fill-rule="evenodd" clip-rule="evenodd" d="M41.3874 48.8825C51.1874 53.5825 58.0874 62.8825 59.3874 72.8825C60.4874 80.8825 60.7874 81.6825 63.3874 82.2825C67.4874 83.2825 69.8874 81.3825 69.8874 76.9825C69.8874 62.6825 84.3874 46.8825 97.3874 46.8825C106.987 46.8825 112.887 52.1825 112.887 60.7825C112.887 68.0825 104.787 81.6825 97.3874 86.7825C94.4874 88.6825 92.6874 89.0825 86.7874 89.0825C82.8874 88.9825 76.3874 88.4825 72.2874 87.8825C67.0874 87.0825 62.7874 87.0825 57.5874 87.7825C50.0874 88.8825 43.7874 89.2825 37.8874 88.9825C34.9874 88.8825 33.3874 87.7825 28.3874 82.5825C17.9874 71.6825 14.3874 60.5825 18.7874 53.2825C22.5874 47.0825 33.2874 44.9825 41.3874 48.8825ZM87.7874 105.283C89.6874 105.883 91.3874 106.883 91.5874 107.583C92.4874 110.183 88.3874 110.683 76.5874 109.683C68.5874 108.983 61.1874 108.983 53.1874 109.683C41.7874 110.683 37.8874 110.183 37.8874 107.783C37.8874 105.983 43.2874 104.683 53.3874 103.983C65.3874 103.083 83.0874 103.783 87.7874 105.283ZM20.8874 61.1825C20.8874 57.2825 24.1874 53.1825 28.1874 51.9825C35.2874 49.9825 43.8874 53.4825 49.3874 60.4825C53.8874 66.4825 57.1874 78.5825 55.0874 81.6825C53.6874 83.6825 46.9874 84.8825 40.8874 84.1825C35.9874 83.5825 34.8874 82.9825 30.3874 78.4825C24.6874 72.7825 20.8874 65.7825 20.8874 61.1825ZM74.7874 74.6825C76.6874 63.1825 84.0874 53.9825 93.1874 51.8825C94.8874 51.4825 96.9874 51.2825 97.6874 51.4825C98.4874 51.6825 99.9874 51.8825 101.087 51.8825C102.187 51.8825 104.387 53.1825 105.987 54.7825C108.187 56.9825 108.887 58.6825 108.887 61.5825C108.887 66.6825 103.887 74.9825 97.6874 80.1825C93.0874 83.9825 92.7874 84.0825 85.3874 84.0825C75.0874 84.0825 73.4874 82.7825 74.7874 74.6825Z" fill="#EAEAEA"/>
</svg>
