<svg width="130" height="130" viewBox="0 0 130 130" fill="none" xmlns="http://www.w3.org/2000/svg">
<path d="M25.7465 14.8001C23.3465 17.3001 23.0465 18.3001 23.0465 25.1001V32.6001L30.5465 40.0001L38.0465 47.4001V65.0001V82.5001L28.5465 92.0001L19.0465 101.5V108.1C19.0465 118.7 15.7465 118 64.7465 118C113.447 118 110.047 118.8 110.047 107.9V101.5L101.047 92.5001L92.0465 83.5001V65.5001V47.4001L99.0465 40.5001L106.047 33.6001V25.0001C106.047 17.3001 105.847 16.1001 103.747 14.2001C101.847 12.4001 100.247 12.0001 94.4465 12.0001C86.9465 12.0001 85.0465 12.9001 85.0465 16.7001C85.0465 18.7001 84.5465 19.0001 81.5465 19.0001C78.5465 19.0001 78.0465 18.7001 78.0465 16.7001C78.0465 12.6001 76.3465 12.0001 65.0465 12.0001C53.7465 12.0001 52.0465 12.6001 52.0465 16.7001C52.0465 18.7001 51.5465 19.0001 48.5465 19.0001C45.8465 19.0001 45.0465 18.6001 45.0465 17.2001C45.0465 13.6001 41.8465 12.0001 34.9465 12.0001C29.1465 12.0001 28.1465 12.3001 25.7465 14.8001Z" fill="black"/>
<path d="M85.0465 49.5V53L64.8465 52.8L44.5465 52.5L44.2465 49.2L43.9465 46H64.4465H85.0465V49.5ZM85.0465 82V85H64.5465H44.0465V82V79H64.5465H85.0465V82Z" fill="#EAEAEA"/>
</svg>
