<svg width="130" height="130" viewBox="0 0 130 130" fill="none" xmlns="http://www.w3.org/2000/svg">
<path d="M57.2 3.90008C52.4 6.90008 51.2 13.8001 54.4 19.9001L55.9 22.8001L51.3 25.0001C48.8 26.2001 43.5 30.4001 39.4 34.4001C33.2 40.5001 31.9 42.3001 30.4 47.3001C27.9 55.9001 29.8 63.4001 37.2 73.8001C40.2 78.0001 40.3 78.2001 39 82.8001C35.9 93.7001 36.8 96.5001 44.1 97.6001C46.2 98.0001 47.9 98.6001 47.9 98.9001C47.9 100.5 38.1 102 28.3 102C16.1 102 13.6 102.9 9.1 109.1L6 113.3L9.9 119.1C12.1 122.3 14.9 125.6 16 126.4C17.9 127.7 18.4 127.7 20.5 126.3C21.9 125.4 28.7 124 36.2 123C52.3 120.8 56.5 119.7 61.3 116.5L65.1 113.9L68.3 116C74 119.5 80 121.1 94.2 123C103.7 124.2 108.6 125.3 109.9 126.5C111.3 127.8 112.2 127.9 113.8 127.1C115.7 126 123.9 115 123.9 113.4C123.9 111.9 118.5 105.7 115.5 103.9C113 102.4 110.5 102 102.2 102C92.1 102 81.9 100.4 81.9 98.8001C81.9 98.4001 83 98.0001 84.4 98.0001C87.9 98.0001 92.6 95.4001 93.3 93.2001C93.6 92.3001 93 88.4001 91.9 84.6001L90 77.8001L93.9 72.1001C103.6 57.8001 103 46.4001 91.8 35.1001C87.6 30.9001 79.3 25.0001 75.7 23.7001C74.2 23.2001 74.3 22.8001 76.1 19.1001C78.7 13.9001 77.9 8.80008 73.9 4.80008C71.5 2.40008 70.3 2.00008 65.7 2.00008C62.2 2.00008 59.3 2.70008 57.2 3.90008Z" fill="black"/>
<path d="M68.3 10.6C70.2 12.4 70.3 13.4 68.9 16.1C66.9 19.8 60.9 17.9 60.9 13.5C60.9 9.30001 65.3 7.60001 68.3 10.6ZM68.1 41.2C67.8 44.9 67.8 45 71.3 45C74.7 45 74.9 45.2 74.9 48.4C74.9 51.6 74.6 51.9 71.7 52.2C68.6 52.5 68.4 52.8 68.4 56.3C68.4 59.8 68.2 60 65.2 60C62 60 61.9 59.8 61.9 56C61.9 52.3 61.7 52 59 52C56.6 52 56.1 51.5 55.7 49C55.2 45.4 55.4 45 59.1 45C61.7 45 61.9 44.7 61.9 40.9C61.9 37 62 36.9 65.2 37.2C68.3 37.5 68.4 37.7 68.1 41.2ZM82.6 71.6C82.9 72.5 82.6 73.6 81.8 74.1C80.2 75.2 48.4 74.9 47.4 73.8C47 73.4 46.9 72.4 47.2 71.5C48.2 69.2 81.7 69.2 82.6 71.6ZM81.3 81.6C83.4 82.4 83.3 84.6 81.2 85.5C80.2 85.9 73.7 86.4 66.8 86.7C51.1 87.4 43 85.3 48.7 82.1C50.5 81 78.7 80.6 81.3 81.6Z" fill="#EAEAEA"/>
</svg>
