<svg width="130" height="130" viewBox="0 0 130 130" fill="none" xmlns="http://www.w3.org/2000/svg">
<path d="M59.6 12.7902C51.9 15.0902 48 23.0902 50.5 31.3902C51.8 35.6902 51.8 36.2902 50.4 37.0902C46.5 39.2902 42 44.1902 40.9 47.4902C38.5 54.6902 41.6 64.9902 47.2 68.1902L50.3 70.0902L46.9 71.7902C41.8 74.4902 34.3 81.4902 31.5 86.1902C28.2 91.7902 26 101.69 26 110.99V118.79H65.1H104.3L103.7 108.49C103.4 102.89 102.4 95.9902 101.5 93.1902C99.1 86.0902 93.6 79.1902 86.5 74.3902L80.4 70.2902L84.6 66.2902C89.3 61.7902 90.6 57.5902 89.5 50.2902C88.9 45.7902 84.4 39.8902 79.7 37.2902C78 36.3902 78 35.9902 79.5 31.5902C83.7 19.4902 72.6 8.99016 59.6 12.7902Z" fill="#363636"/>
<path d="M68.1 18.7902C69.9 18.7902 73 22.7902 73 25.1902C73 26.4902 72.1 29.4902 71.1 31.7902C70 34.1902 69.4 36.6902 69.7 37.3902C69.9 38.0902 71.9 39.7902 74.1 41.2902C79.3 44.6902 82 49.1902 82 54.5902C82 59.0902 80.3 61.3902 73.2 67.0902C70.3 69.3902 71.4999 71.7902 77.7999 76.0902C90.7 84.9902 95.8999 92.8902 96.7999 104.79L97.2999 111.79H65H32.7L33.2 104.79C34.1 92.6902 38.6 86.0902 53 75.4902C58.8 71.1902 59.2 68.7902 54.5 65.0902C45.3 57.9902 45.9 48.2902 55.9 41.1902C60.3 37.9902 61 35.2902 58.5 30.7902C54.8 24.2902 59.2999 16.6902 65.7999 18.3902C66.5999 18.5902 67.6 18.7902 68.1 18.7902Z" fill="white"/>
</svg>
