<svg width="130" height="130" viewBox="0 0 130 130" fill="none" xmlns="http://www.w3.org/2000/svg">
<path fill-rule="evenodd" clip-rule="evenodd" d="M52.6 12.9766C52.6 7.87664 55.4 4.07664 60.3 2.57664C62 2.07664 64.9 1.87664 66.8 2.07664C76 3.17664 80.2 12.3766 75.2 20.3766C74.4 21.6766 73.9 22.7766 74.1 22.8766C87.5 29.5766 96.8 38.2766 99.5 46.8766C101 51.7766 101.1 53.4766 100.2 58.0766C99.1 63.2766 96.1 69.1766 91.8 74.6766L89.7 77.2766L91.8 84.5766C94.1 92.8766 93.7 94.6766 88.7 96.5766C87.2876 97.0474 85.5057 97.703 84.2724 98.1567C83.934 98.2812 83.6368 98.3905 83.4 98.4766C79.7 99.8766 91.7 102.077 101.7 101.777C112.9 101.577 116.7 102.977 121 108.877C123.8 112.777 123.8 112.877 122.1 115.877C121.2 117.477 118.6 120.877 116.3 123.377L112.3 127.877L109.6 126.177C108 125.077 102 123.677 94.2 122.577C80.2 120.577 73.7 118.877 68.4 115.677L64.8 113.577L61.1 116.077C55.9 119.477 49.6 121.177 34.4 123.077C25.8 124.177 20.8 125.277 19.7 126.277C18 127.777 17.7 127.777 15.8 125.977C14.6 124.977 11.9 121.577 9.8 118.477L6 112.777L9.5 108.677C14.9 102.477 17.1 101.677 29 101.677C35.1 101.777 41.5 101.177 44.4 100.377L49.4 98.9766L44.7 97.7766C39.5 96.4766 36.9 94.3766 36.9 91.4766C36.9 90.3766 37.6 86.5766 38.5 83.0766L40.1 76.6766L37.5 73.4766C33.8 69.0766 30.3 61.8766 29.5 56.9766C27.4 44.8766 37.4 31.9766 55.7 22.8766C55.9 22.7766 55.3 21.5766 54.3 20.0766C53.3 18.5766 52.6 15.4766 52.6 12.9766Z" fill="#363636"/>
<path d="M68.9 10.5766C70 11.6766 70.9 13.2766 70.9 14.0766C70.9 16.1766 67.3 19.5766 65.1 19.5766C62.1 19.5766 59.7 17.0766 59.7 14.0766C59.7 8.9766 65.2 6.8766 68.9 10.5766Z" fill="white"/>
<path fill-rule="evenodd" clip-rule="evenodd" d="M71.4 28.4766C77.7 31.3766 87.6 39.1766 90.5 43.5766C95.5 51.1766 94.3 62.2766 88 65.9766C81.7 69.5766 50.2 69.9766 42.6 66.4766C37 63.8766 34.3 53.6766 37.5 46.9766C41.4 38.6766 57.7 26.5766 64.8 26.5766C66.2 26.5766 69.2 27.4766 71.4 28.4766ZM58.7001 45.3766C61 45.0766 61.4001 44.5766 61.7001 41.2766C62 37.9766 62.3 37.5766 64.9 37.5766C67.5 37.5766 67.8001 37.9766 68.1001 41.2766C68.4001 44.7766 68.7 45.0766 71.7001 45.3766C74.8 45.6766 75 45.9766 74.7001 48.8766C74.4 51.6766 74 52.0766 71.2001 52.3766C68.1 52.6766 67.9 52.9766 67.9 56.6766C67.9 60.3766 67.7 60.5766 64.9 60.5766C62.1 60.5766 61.9 60.3766 61.9 56.5766C61.9 52.7766 61.7 52.5766 58.9 52.5766C56.1 52.5766 55.9 52.2766 55.9 49.1766C55.9 46.1766 56.2001 45.6766 58.7001 45.3766Z" fill="white"/>
<path d="M84.1 77.5766L83.7 81.0766H46.1L45.7 77.5766L45.4 74.0766H84.4L84.1 77.5766Z" fill="white"/>
<path d="M83.8 87.5766C86.6 88.9766 86.5 91.1766 83.7 91.8766C79.3 92.9766 56.2 93.8766 50.5 93.1766C44.7 92.3766 42.5 90.5766 44.8 88.2766C47.3 85.7766 79.3 85.0766 83.8 87.5766Z" fill="white"/>
<path d="M71.5 101.077C78.2 105.877 83.3 107.277 97.9 108.477C108.7 109.377 110.6 109.777 112.1 111.677C113.5 113.277 113.6 114.177 112.8 115.777C111.8 117.577 111.1 117.677 104.1 117.077C83.9 115.377 72.2 112.177 67.5 107.077L65.1 104.477L62.5 107.077C59.1 110.477 52.9 113.177 45.4 114.477C34.6 116.277 19.1 117.777 18 117.077C17.4 116.777 16.9 115.377 16.9 113.977C16.9 110.377 21.2 108.977 33.9 108.277C47 107.477 51 106.377 57.9 101.477C60.9 99.3766 64.1 97.5766 65 97.5766C65.8 97.5766 68.8 99.1766 71.5 101.077Z" fill="white"/>
<path fill-rule="evenodd" clip-rule="evenodd" d="M68.9 10.5766C70 11.6766 70.9 13.2766 70.9 14.0766C70.9 16.1766 67.3 19.5766 65.1 19.5766C62.1 19.5766 59.7 17.0766 59.7 14.0766C59.7 8.9766 65.2 6.8766 68.9 10.5766ZM71.4 28.4766C77.7 31.3766 87.6 39.1766 90.5 43.5766C95.5 51.1766 94.3 62.2766 88 65.9766C81.7 69.5766 50.2 69.9766 42.6 66.4766C37 63.8766 34.3 53.6766 37.5 46.9766C41.4 38.6766 57.7 26.5766 64.8 26.5766C66.2 26.5766 69.2 27.4766 71.4 28.4766ZM84.1 77.5766L83.7 81.0766H46.1L45.7 77.5766L45.4 74.0766H84.4L84.1 77.5766ZM83.8 87.5766C86.6 88.9766 86.5 91.1766 83.7 91.8766C79.3 92.9766 56.2 93.8766 50.5 93.1766C44.7 92.3766 42.5 90.5766 44.8 88.2766C47.3 85.7766 79.3 85.0766 83.8 87.5766ZM71.5 101.077C78.2 105.877 83.3 107.277 97.9 108.477C108.7 109.377 110.6 109.777 112.1 111.677C113.5 113.277 113.6 114.177 112.8 115.777C111.8 117.577 111.1 117.677 104.1 117.077C83.9 115.377 72.2 112.177 67.5 107.077L65.1 104.477L62.5 107.077C59.1 110.477 52.9 113.177 45.4 114.477C34.6 116.277 19.1 117.777 18 117.077C17.4 116.777 16.9 115.377 16.9 113.977C16.9 110.377 21.2 108.977 33.9 108.277C47 107.477 51 106.377 57.9 101.477C60.9 99.3766 64.1 97.5766 65 97.5766C65.8 97.5766 68.8 99.1766 71.5 101.077ZM58.7001 45.3766C61 45.0766 61.4001 44.5766 61.7001 41.2766C62 37.9766 62.3 37.5766 64.9 37.5766C67.5 37.5766 67.8001 37.9766 68.1001 41.2766C68.4001 44.7766 68.7 45.0766 71.7001 45.3766C74.8 45.6766 75 45.9766 74.7001 48.8766C74.4 51.6766 74 52.0766 71.2001 52.3766C68.1 52.6766 67.9 52.9766 67.9 56.6766C67.9 60.3766 67.7 60.5766 64.9 60.5766C62.1 60.5766 61.9 60.3766 61.9 56.5766C61.9 52.7766 61.7 52.5766 58.9 52.5766C56.1 52.5766 55.9 52.2766 55.9 49.1766C55.9 46.1766 56.2001 45.6766 58.7001 45.3766Z" fill="white"/>
</svg>
