<svg width="130" height="130" viewBox="0 0 130 130" fill="none" xmlns="http://www.w3.org/2000/svg">
<path fill-rule="evenodd" clip-rule="evenodd" d="M56.9 14C55.5 15.6 54.2 17.4 54 18C53.8 18.7 51.7 18.2 48.4 16.5C45.6 15.1 40.9 13.6 38.1 13.3L33 12.7L33.7 18.8C34.5 25.8 33.1 31.8 27.8 43.2C18.4 63.7 14.3 73 12.8 77.7L11 83L13.9 87C17.1 91.5 22.3 94.4 25.9 93.7C27.6 93.4 29.1 94 30.8 95.7C34.7 99.6 37.9 98.5 42.4 92C44.5 89 47.9 84.8 50 82.7C53.8 78.7 61.9 73.4 62.8 74.3C64 75.5 61.4 80.9 54.7 91C47.4 101.8 43.2 110.9 43.2 115.5V118H119L119.7 110.7C120.6 101.3 118.8 81.8 116.2 71.5C112.4 56.8 104.2 42.6 94.5 34C88.1 28.4 83.1 25.9 76.6 25.3C71.6 24.8 71.2 24.5 70.1 21.3C68.7 16.9 63.5 11 61.2 11C60.2 11 58.3 12.3 56.9 14Z" fill="#363636"/>
<path fill-rule="evenodd" clip-rule="evenodd" d="M43.4 20.6L46.6 22.2L44.1 23.6C40.4 25.7 39.2 25.3 39.2 22C39.2 18.5 39.3 18.5 43.4 20.6ZM63.5926 25.0613C64.9382 29.3933 65.5509 31.3659 66.8861 32.262C68.0026 33.0112 69.6241 33.0077 72.6014 33.0013C72.8881 33.0007 73.1874 33 73.5 33C78.8 33 81.3 33.5 83.8 35.1C89.3 38.5 98.4 49.3 102.9 57.6C109.4 69.8 111.3 77.9 111.9 95.7L112.5 110.9L82.3 111.2C58.3 111.4 52.2 111.2 52.2 110.2C52.2 108.3 55.9 101.4 61.1 93.5C68.1 83 70.2 77.6 70.2 70C70.2 67.5 71.3 61.8 72.6 57.4C75.2 48.7 75.1 46.5 72.1 48C69.6 49.4 65.6 56.5 64.2 62C63.2 66 62.5 66.9 58.5 69C52.4 72.2 44.7 79.4 39.7 86.4C35.4 92.3 33.5 93 34 88.5C34.3 85.9 34.1 85.8 31.5 86.4C23.9 88.3 22.7 88.2 19.9 85.4C17.7 83.3 17.2 82 17.7 80.1C18 78.6 22.5 68.7 27.6 58C32.7 47.3 37.5 37.1 38.2 35.3C39.2 32.7 40.5 31.7 44.9 30C53.7 26.7 58.2 24.1 59.4 21.5C60.8 18.4 61.7 19 63.2 23.8C63.3361 24.2356 63.465 24.6505 63.5878 25.0459L63.5902 25.0536L63.591 25.0563L63.5926 25.0613ZM35.6001 51.5C34.5001 48.7 36.2001 45 39.5001 43C43.0001 40.8 47.7001 40.4 48.7001 42.1C50.2001 44.4 48.0001 48 43.9001 50.5C38.9001 53.4 36.4001 53.7 35.6001 51.5ZM22.9 82.8C20.2 82.4 19.5 78.9 21.7 76.6C23.7 74.6 24.6 74.6 26.2 76.5C28.2 78.9 25.9 83.2 22.9 82.8Z" fill="white"/>
</svg>
