<svg width="130" height="130" viewBox="0 0 130 130" fill="none" xmlns="http://www.w3.org/2000/svg">
<path d="M57.9 9.05515C54.6 12.4551 54.3 15.0551 56.6 21.2551C58.7 26.9551 58.7 41.0551 56.5 51.0551C55.7 55.1551 54.8 58.6551 54.6 58.8551C54.1 59.3551 48.1 43.7551 46.5 37.4551C45.4 33.3551 45.1 29.5551 45.6 24.5551C46.2 18.0551 46 17.3551 43.6 14.4551C37.3 6.95515 26 10.8551 26 20.6551C26 24.1551 26.6 25.7551 29.1 28.5551C30.7 30.4551 32.5 33.5551 33.1 35.3551C34.1 39.0551 34.3 49.7551 33.4 55.4551L32.7 59.2551L29.9 55.9551C23.3 48.4551 21.6 44.2551 21.8 36.8551C22 28.8551 20.4 24.9551 16.1 23.1551C9.6 20.5551 2 25.7551 2 32.8551C2 35.6551 2.8 37.2551 5.9 40.3551C9.1 43.4551 10.1 45.4551 11 49.9551C11.6 53.0551 13.3 60.9551 14.7 67.5551C17.1 78.2551 17.8 79.7551 21.5 84.0551C30.6 94.2551 31.2 96.1551 28.1 103.355C25.3 109.855 24.6 115.255 26.3 117.555C28.4 120.455 38.6 122.155 58.5 122.855C77.5 123.455 94.6 122.155 100.7 119.655C104.1 118.255 104.5 117.155 104 110.655C103.9 109.055 102.9 106.055 101.9 103.955C98.4 97.0551 99.1 95.0551 108.6 83.3551C112.9 78.1551 115.1 70.9551 118.5 51.7551C119.6 45.4551 120.2 44.1551 124 40.3551C127.9 36.4551 128.2 35.8551 127.7 32.0551C126.7 24.3551 119 19.9551 113.2 23.7551C108.7 26.6551 108 28.2551 108.1 35.7551C108.3 43.6551 106.6 47.8551 100.7 54.9551C97.4 58.8551 97.2 58.9551 96.6 56.8551C95.6 53.0551 95.9 38.6551 97.1 35.0551C97.8 33.1551 99.6 29.8551 101.1 27.7551C104.9 22.5551 104.9 18.1551 101.2 14.0551C98.8 11.4551 97.6 10.8551 94 10.8551C90.3 10.8551 89.2 11.3551 86.7 14.1551C83.9 17.3551 83.8 17.7551 84.4 24.1551C85.1 31.9551 82.9 42.0551 78.2 52.7551C74.8 60.3551 74.9 60.3551 72.5 46.7551C70.5 35.1551 70.6 32.0551 73.1 22.6551C74.8 16.1551 74.9 14.3551 73.9 11.9551C71.2 5.45515 63 3.95515 57.9 9.05515Z" fill="#363636"/>
<path d="M68.8 14.7551C69.2 18.5551 67 20.6551 63.5 19.7551C61.5 19.2551 61 18.5551 61 15.7551C61 11.6551 61.7 10.9551 65.5 11.3551C68 11.6551 68.5 12.1551 68.8 14.7551ZM38.4 17.4551C39.6 18.3551 40.1 19.7551 39.8 21.6551C39.6 24.1551 39 24.7551 36.5 24.9551C34.6 25.2551 33.2 24.7551 32.3 23.5551C30.6 21.1551 30.6 20.5551 33 18.1551C35.4 15.7551 36 15.7551 38.4 17.4551ZM96.4 17.4551C97.6 18.3551 98.1 19.7551 97.8 21.6551C97.5 24.3551 97.1 24.6551 94.1 24.6551C89.7 24.6551 88 21.1551 91 18.1551C93.3 15.8551 94 15.7551 96.4 17.4551ZM14.8 29.3551C16.8 31.3551 16.3 35.9551 14 36.6551C10.3 37.8551 8 36.3551 8 32.6551C8 30.8551 8.6 29.0551 9.3 28.8551C11.5 27.9551 13.6 28.1551 14.8 29.3551ZM120.8 29.3551C123.5 32.0551 121.5 37.1551 117.9 37.1551C115.8 37.1551 113 34.5551 113 32.6551C113 29.1551 118.3 26.8551 120.8 29.3551ZM42 43.8551C42 46.2551 48 57.8551 51.7 62.6551L55.3 67.4551L57.1 65.0551C59.2 62.3551 64 48.2551 64 44.7551C64 39.3551 65.5 41.7551 67.6 50.4551C69.8 59.6551 73.4 67.6551 75 66.6551C76.9 65.4551 83.3 54.8551 86.5 47.6551L90 39.6551V46.1551C90 52.9551 92.3 68.7551 93.4 69.8551C93.7 70.1551 98.1 66.3551 103.1 61.2551C108.1 56.2551 111.9 52.9551 111.6 53.8551C111.3 54.8551 110.3 59.0551 109.4 63.1551C107.9 70.2551 105.6 76.1551 104.4 76.1551C104.2 76.1551 102.1 75.1551 99.8 74.0551C84.8 66.3551 48.2 66.2551 31.3 73.7551C27.2 75.5551 25.4 75.8551 24.4 75.0551C23.7 74.5551 22.2 69.8551 21 64.8551C19.9 59.7551 18.7 54.9551 18.4 53.9551C18.1 53.0551 22 56.4551 27 61.4551C32 66.3551 36.3 70.1551 36.6 69.8551C37.7 68.7551 40 52.9551 40 46.1551C40 41.5551 40.3 40.0551 41 41.1551C41.5 41.9551 42 43.2551 42 43.8551ZM74 75.1551C80.3 75.7551 87.3 76.6551 89.5 77.2551C93.3 78.2551 97 80.6551 97 82.1551C97 82.4551 82.6 82.7551 65 82.8551C47.4 82.8551 33 82.5551 33 82.0551C33 80.7551 37.3 78.1551 41.5 76.9551C43.7 76.3551 49.1 75.5551 53.5 75.1551C57.9 74.7551 61.7 74.3551 62 74.3551C62.3 74.2551 67.7 74.6551 74 75.1551ZM87.2 89.8551C87.2224 89.8571 87.2447 89.8591 87.2669 89.8611C93.9007 90.4552 93.9973 90.4638 93.2 93.0551C92.8 94.4551 92.5 97.0551 92.6 98.6551V101.755L87.6 101.055C84.8 100.655 74.6 100.255 65 100.255C55.4 100.255 45.2 100.655 42.4 101.055L37.4 101.755V98.6551C37.5 97.0551 37.1 94.4551 36.7 92.9551C36 90.3551 36.1 90.2551 40.7 89.8551C49.3 89.2551 80.4 89.1551 87.2 89.8551ZM90.7 108.155C94.7 109.555 95.6 111.755 92.8 113.255C87.6 116.055 49.9 116.555 39.8 114.055C35.9 113.055 34.6 110.155 37.2 108.555C41 106.155 84.3 105.855 90.7 108.155Z" fill="white"/>
<path d="M42 43.8551C42 46.2551 48 57.8551 51.7 62.6551L55.3 67.4551L57.1 65.0551C59.2 62.3551 64 48.2551 64 44.7551C64 39.3551 65.5 41.7551 67.6 50.4551C69.8 59.6551 73.4 67.6551 75 66.6551C76.9 65.4551 83.3 54.8551 86.5 47.6551L90 39.6551V46.1551C90 52.9551 92.3 68.7551 93.4 69.8551C93.7 70.1551 98.1 66.3551 103.1 61.2551C108.1 56.2551 111.9 52.9551 111.6 53.8551C111.3 54.8551 110.3 59.0551 109.4 63.1551C107.9 70.2551 105.6 76.1551 104.4 76.1551C104.2 76.1551 102.1 75.1551 99.8 74.0551C84.8 66.3551 48.2 66.2551 31.3 73.7551C27.2 75.5551 25.4 75.8551 24.4 75.0551C23.7 74.5551 22.2 69.8551 21 64.8551C19.9 59.7551 18.7 54.9551 18.4 53.9551C18.1 53.0551 22 56.4551 27 61.4551C32 66.3551 36.3 70.1551 36.6 69.8551C37.7 68.7551 40 52.9551 40 46.1551C40 41.5551 40.3 40.0551 41 41.1551C41.5 41.9551 42 43.2551 42 43.8551Z" fill="white"/>
<path d="M74 75.1551C80.3 75.7551 87.3 76.6551 89.5 77.2551C93.3 78.2551 97 80.6551 97 82.1551C97 82.4551 82.6 82.7551 65 82.8551C47.4 82.8551 33 82.5551 33 82.0551C33 80.7551 37.3 78.1551 41.5 76.9551C43.7 76.3551 49.1 75.5551 53.5 75.1551C57.9 74.7551 61.7 74.3551 62 74.3551C62.3 74.2551 67.7 74.6551 74 75.1551Z" fill="white"/>
<path d="M87.2 89.8551L87.2669 89.8611C93.9007 90.4552 93.9973 90.4638 93.2 93.0551C92.8 94.4551 92.5 97.0551 92.6 98.6551V101.755L87.6 101.055C84.8 100.655 74.6 100.255 65 100.255C55.4 100.255 45.2 100.655 42.4 101.055L37.4 101.755V98.6551C37.5 97.0551 37.1 94.4551 36.7 92.9551C36 90.3551 36.1 90.2551 40.7 89.8551C49.3 89.2551 80.4 89.1551 87.2 89.8551Z" fill="white"/>
<path d="M90.7 108.155C94.7 109.555 95.6 111.755 92.8 113.255C87.6 116.055 49.9 116.555 39.8 114.055C35.9 113.055 34.6 110.155 37.2 108.555C41 106.155 84.3 105.855 90.7 108.155Z" fill="white"/>
<path d="M68.8 14.7551C69.2 18.5551 67 20.6551 63.5 19.7551C61.5 19.2551 61 18.5551 61 15.7551C61 11.6551 61.7 10.9551 65.5 11.3551C68 11.6551 68.5 12.1551 68.8 14.7551Z" fill="white"/>
<path d="M38.4 17.4551C39.6 18.3551 40.1 19.7551 39.8 21.6551C39.6 24.1551 39 24.7551 36.5 24.9551C34.6 25.2551 33.2 24.7551 32.3 23.5551C30.6 21.1551 30.6 20.5551 33 18.1551C35.4 15.7551 36 15.7551 38.4 17.4551Z" fill="white"/>
<path d="M14.8 29.3551C16.8 31.3551 16.3 35.9551 14 36.6551C10.3 37.8551 8 36.3551 8 32.6551C8 30.8551 8.6 29.0551 9.3 28.8551C11.5 27.9551 13.6 28.1551 14.8 29.3551Z" fill="white"/>
<path d="M120.8 29.3551C123.5 32.0551 121.5 37.1551 117.9 37.1551C115.8 37.1551 113 34.5551 113 32.6551C113 29.1551 118.3 26.8551 120.8 29.3551Z" fill="white"/>
<path d="M96.4 17.4551C97.6 18.3551 98.1 19.7551 97.8 21.6551C97.5 24.3551 97.1 24.6551 94.1 24.6551C89.7 24.6551 88 21.1551 91 18.1551C93.3 15.8551 94 15.7551 96.4 17.4551Z" fill="white"/>
</svg>
