<svg width="130" height="130" viewBox="0 0 130 130" fill="none" xmlns="http://www.w3.org/2000/svg">
<path d="M23.7 13.8C21.2 16.4 21 17.3 21 24.7V32.8L28.9 39.7L36.9 46.5V65L37 83.5L28 92.5L19 101.5V108.5C19 112.7 19.5 116.1 20.2 116.8C21.1 117.7 32.2 118 64 118C113.3 118 110 118.7 110 108.4V102.5L100.5 92.8L91 83.1V65.2V47.2L99 40.4L107 33.5V24.9C107 16.9 106.8 16.2 104.2 13.7C101.7 11.3 100.7 11 93.9 11C85.5 11 81.7 13 82.7 17C83.2 18.7 82.8 19 80.1 19C77.5 19 77 18.6 77 16.7C77 12.2 74.2 11 63.8 11C53.5 11 51 12.2 51 16.8C51 18.5 50.4 19 48.5 19C46.5 19 46 18.5 46 16.7C46 12.4 43.1 11 34.4 11C26.9 11 26.2 11.2 23.7 13.8Z" fill="#363636"/>
<path d="M40 21.3C40 24.9 41.9 26 48.1 26C55.7 26 57 25.4 57 21.9V19H64C70.6 19 71 19.1 71 21.3C71 25 72.9 26 80.2 26C86 26 87.1 25.7 88 23.9C88.7 22.8 88.9 21.2 88.6 20.4C88.2 19.3 89.3 19 93.9 19C100.6 19 101 19.5 101 26.8C101 31.3 100.8 31.7 95 36.2L89.1 41H64.3H39.5L33.5 36.2C27.6 31.4 27.5 31.2 27.5 26.4C27.6 23.7 27.9 20.9 28.4 20.2C28.8 19.5 31.3 19 34.6 19C39.6 19 40 19.2 40 21.3ZM85 64V80L64.4 79.8L43.9 79.5L43.7 63.7L43.5 48H64.3H85V64ZM91.7 91.2C94.6 94.1 97 96.7 97 97C97 97.3 82.3 97.4 64.3 97.2L31.6 96.9L37 91.5L42.4 86H64.4H86.4L91.7 91.2ZM104 107.5V111H64.5H25V107.5V104H64.5H104V107.5Z" fill="white"/>
<path d="M40 21.3C40 24.9 41.9 26 48.1 26C55.7 26 57 25.4 57 21.9V19H64C70.6 19 71 19.1 71 21.3C71 25 72.9 26 80.2 26C86 26 87.1 25.7 88 23.9C88.7 22.8 88.9 21.2 88.6 20.4C88.2 19.3 89.3 19 93.9 19C100.6 19 101 19.5 101 26.8C101 31.3 100.8 31.7 95 36.2L89.1 41H64.3H39.5L33.5 36.2C27.6 31.4 27.5 31.2 27.5 26.4C27.6 23.7 27.9 20.9 28.4 20.2C28.8 19.5 31.3 19 34.6 19C39.6 19 40 19.2 40 21.3Z" fill="white"/>
<path d="M85 64V80L64.4 79.8L43.9 79.5L43.7 63.7L43.5 48H64.3H85V64Z" fill="white"/>
<path d="M91.7 91.2C94.6 94.1 97 96.7 97 97C97 97.3 82.3 97.4 64.3 97.2L31.6 96.9L37 91.5L42.4 86H64.4H86.4L91.7 91.2Z" fill="white"/>
<path d="M104 107.5V111H64.5H25V107.5V104H64.5H104V107.5Z" fill="white"/>
</svg>
