<svg width="130" height="130" viewBox="0 0 130 130" fill="none" xmlns="http://www.w3.org/2000/svg">
<path d="M61.2826 8.40002C60.0826 11.2 59.1826 11.9 56.5826 12.2C53.6826 12.5 53.2826 12.9 52.9826 15.7C52.6826 18.6 53.0826 19.1 56.6826 21C61.3826 23.3 62.2826 27.1 58.7826 29C54.7826 31.1 50.7826 38 50.7826 42.7C50.7826 46.7 49.6826 48.2 48.3826 46.1C46.8826 43.8 38.4826 41 32.8826 41C20.6826 41 12.1826 47.7 10.3826 58.6C9.18264 65.3 10.5826 69.4 17.7826 80.5C24.7826 91.3 26.1826 95 27.6826 107.6C28.1826 111.5 29.0826 115.6 29.6826 116.7C31.1826 119.7 38.1826 122.6 46.9826 124C57.4826 125.7 83.2826 124.8 90.6826 122.5C98.8826 120 101.283 117 102.083 108.5C103.183 97.6 105.283 91.4 110.683 83.2C117.383 72.9 119.783 67.4 119.783 61.8C119.783 55.8 118.483 52.3 114.483 48.2C106.783 40.1 95.7826 38.3 85.7826 43.6C82.7826 45.2 79.9826 46.6 79.5826 46.8C79.0826 47 78.7826 44.6 78.7826 41.5C78.7826 36.2 78.5826 35.7 74.2826 31.6C68.7826 26.2 68.5826 23.9 73.2826 21C76.1826 19.2 76.7826 18.2 76.7826 15.4C76.7826 12.2 76.5826 12 73.3826 12C70.3826 12 69.7826 11.6 68.7826 8.50002C67.8826 5.80002 67.0826 5.00002 65.1826 5.00002C63.2826 5.00002 62.2826 5.80002 61.2826 8.40002Z" fill="#363636"/>
<path d="M68.1826 35.1C71.0826 36.4 72.7826 40.6 72.7826 46.1C72.7826 49.9 67.2826 62 65.2826 62.7C64.6826 62.9 62.7826 60.4 60.9826 57.1C56.0826 48.1 56.5826 37.2 62.0826 35C65.0826 33.8 65.2826 33.8 68.1826 35.1ZM41.1826 49.5C51.0826 54.2 60.3826 67.1 60.9826 77L61.2826 81.5L55.7826 82.6C52.7826 83.2 45.4826 84 39.5826 84.4L28.7826 85.1L24.1826 78.8C16.3826 68.2 14.9826 62.4 18.7826 55.1C20.4826 51.7 22.5826 50.1 28.7826 47.6C31.1826 46.7 37.1826 47.6 41.1826 49.5ZM104.383 48.9C109.283 51.1 112.483 55.3 113.383 60.7C114.183 65.6 112.383 70.1 106.183 78.5L101.483 84.9L95.3826 84.5C91.9826 84.2 85.8826 83.8 81.6826 83.5C77.4826 83.3 72.7826 82.6 71.2826 82C68.6826 81 68.5826 80.6 69.0826 76.4C69.7826 69.9 75.0826 59.7 80.0826 55.4C85.2826 50.9 93.2826 47 97.2826 47C98.9826 47 102.083 47.9 104.383 48.9ZM82.5826 90.5C90.4826 91.2 97.1826 92.1 97.4826 92.3C97.9826 92.8 96.1826 105.9 95.5826 106.5C95.3826 106.7 92.1826 106.1 88.2826 105.2C75.9826 102.4 47.9826 103.1 36.2826 106.5C34.4826 107.1 34.1826 106.4 33.0826 99.8C32.4826 95.8 32.0826 92.4 32.1826 92.2C32.3826 92.1 37.8826 91.5 44.3826 90.9C50.8826 90.3 58.0826 89.4 60.2826 89C62.4826 88.5 65.1826 88.4 66.2826 88.6C67.3826 88.9 74.7826 89.7 82.5826 90.5ZM86.0826 112.1C89.6826 113 90.9826 115.2 88.7826 116.5C86.4826 117.9 62.2826 118.9 52.8826 118C39.5826 116.7 37.0826 115.5 41.9826 112.9C46.5826 110.4 77.0826 109.9 86.0826 112.1Z" fill="white"/>
<path d="M68.1826 35.1C71.0826 36.4 72.7826 40.6 72.7826 46.1C72.7826 49.9 67.2826 62 65.2826 62.7C64.6826 62.9 62.7826 60.4 60.9826 57.1C56.0826 48.1 56.5826 37.2 62.0826 35C65.0826 33.8 65.2826 33.8 68.1826 35.1Z" fill="white"/>
<path d="M104.383 48.9C109.283 51.1 112.483 55.3 113.383 60.7C114.183 65.6 112.383 70.1 106.183 78.5L101.483 84.9L95.3826 84.5C91.9826 84.2 85.8826 83.8 81.6826 83.5C77.4826 83.3 72.7826 82.6 71.2826 82C68.6826 81 68.5826 80.6 69.0826 76.4C69.7826 69.9 75.0826 59.7 80.0826 55.4C85.2826 50.9 93.2826 47 97.2826 47C98.9826 47 102.083 47.9 104.383 48.9Z" fill="white"/>
<path d="M41.1826 49.5C51.0826 54.2 60.3826 67.1 60.9826 77L61.2826 81.5L55.7826 82.6C52.7826 83.2 45.4826 84 39.5826 84.4L28.7826 85.1L24.1826 78.8C16.3826 68.2 14.9826 62.4 18.7826 55.1C20.4826 51.7 22.5826 50.1 28.7826 47.6C31.1826 46.7 37.1826 47.6 41.1826 49.5Z" fill="white"/>
<path d="M82.5826 90.5C90.4826 91.2 97.1826 92.1 97.4826 92.3C97.9826 92.8 96.1826 105.9 95.5826 106.5C95.3826 106.7 92.1826 106.1 88.2826 105.2C75.9826 102.4 47.9826 103.1 36.2826 106.5C34.4826 107.1 34.1826 106.4 33.0826 99.8C32.4826 95.8 32.0826 92.4 32.1826 92.2C32.3826 92.1 37.8826 91.5 44.3826 90.9C50.8826 90.3 58.0826 89.4 60.2826 89C62.4826 88.5 65.1826 88.4 66.2826 88.6C67.3826 88.9 74.7826 89.7 82.5826 90.5Z" fill="white"/>
<path d="M86.0826 112.1C89.6826 113 90.9826 115.2 88.7826 116.5C86.4826 117.9 62.2826 118.9 52.8826 118C39.5826 116.7 37.0826 115.5 41.9826 112.9C46.5826 110.4 77.0826 109.9 86.0826 112.1Z" fill="white"/>
</svg>
